<svg id="Layer_1" data-name="Layer 1" xmlns="http://www.w3.org/2000/svg" viewBox="0 0 376.68 375"><defs><style>.cls-1{fill:#ffd77f;}.cls-2{fill:#fab941;}.cls-3{fill:#e88902;}.cls-4{fill:#d45115;}.cls-5{fill:#f6a244;}</style></defs><title>Jupitar</title><circle class="cls-1" cx="187.5" cy="187.5" r="187.5"/><path class="cls-2" d="M368.12,213.71l-223,64.67S115,325.4,118,333.7s298.46-91.25,298.46-91.25S383.42,219.17,368.12,213.71Z" transform="translate(-110.14 -200)"/><path class="cls-3" d="M416.07,243,117.86,331.1s-9.63,63.78-5.58,75.22S463.14,300.59,463.14,300.59s-9.84-17.37-21.31-33.19C433.83,256.37,424.54,246.09,416.07,243Z" transform="translate(-110.14 -200)"/><ellipse class="cls-4" cx="289.83" cy="195.27" rx="84.03" ry="70.21"/><path class="cls-5" d="M461.43,300,112.63,407.15s1.32,21,8.34,40.12c7.42,20.17,20.63,40.64,23,47.79,2.54,7.64,95.61-19.39,183.82-56.52,20.73-8.73,41.19-36.91,60.14-43.7,19.26-6.9,41.77-5.81,58.12-6.83,23.81-1.48,37.94-3,37.94-3s.39-25.26-5.5-49.45C475.19,322,469.9,303.29,461.43,300Z" transform="translate(-110.14 -200)"/><path class="cls-2" d="M484.29,384.5l-21.8,6.68L411.6,430.11,330,437.84l-184.9,60a283.94,283.94,0,0,0,23.65,23.63c4,3.61,11.54,11.24,18.23,15.62s12.56,5.51,13.37,8.1C204.72,559.32,470,453.51,470,453.51s6.06-9.63,12.13-28.14c.72-2.19,2.08-4.3,2.28-6.43.41-4.35-.85-8.76,0-14C485.68,396.63,489.19,386.54,484.29,384.5Z" transform="translate(-110.14 -200)"/></svg>