<svg id="Layer_1" data-name="Layer 1" xmlns="http://www.w3.org/2000/svg" viewBox="0 0 576.97 377.54"><defs><style>.cls-1{fill:#fff07e;}.cls-2{fill:#bf6716;}.cls-3{fill:#ddd243;opacity:0.54;}</style></defs><title>Saturn</title><path class="cls-1" d="M114.65,424.09C137.93,525.28,238.83,588.43,340,565.16S504.36,441,481.08,339.79L452,336.58l-40.93.13-65.68,7.39-53.57,11.53-56.66,14-57.29,20.47L143.23,403Z" transform="translate(-7.62 -192.44)"/><path class="cls-2" d="M273.76,272C114.92,309.85-3.84,382.53,8.5,434.37s151.11,63.23,310,25.42S596.05,349.3,583.71,297.45,432.6,234.23,273.76,272ZM304.92,407.5C184.16,436.25,81.13,438,74.8,411.4S161.23,339.94,282,311.2s223.8-30.49,230.13-3.9S425.68,378.76,304.92,407.5Z" transform="translate(-7.62 -192.44)"/><path class="cls-1" d="M480.41,337C456.36,235.94,355,173.55,254,197.59S90.58,323,114.63,424l29.11,3,40.93-.44,65.62-7.89,53.48-11.93,56.56-14.45,57.13-20.9L452,358.3Z" transform="translate(-7.62 -192.44)"/><path class="cls-3" d="M242.34,233.43c-59,23.39-70.89,41.2-70.89,41.2s-27.64,58.2-24.46,61.89S135.68,425,187.84,364,341.46,248.76,295.75,241.75" transform="translate(-7.62 -192.44)"/></svg>