<svg id="Layer_1" data-name="Layer 1" xmlns="http://www.w3.org/2000/svg" viewBox="0 0 171.57 324.36"><defs><style>.cls-1{fill:#fff;}.cls-1,.cls-2,.cls-3,.cls-4{stroke:#848480;}.cls-1,.cls-2,.cls-3,.cls-4,.cls-5{stroke-miterlimit:10;}.cls-1,.cls-2{stroke-width:3px;}.cls-2{fill:#f8ea49;}.cls-3{fill:#d41a16;}.cls-3,.cls-4{stroke-width:2px;}.cls-4{fill:#364093;}.cls-5{fill:none;stroke:#000;stroke-width:4px;}</style></defs><title>Tom the Space man</title><ellipse class="cls-1" cx="303.14" cy="430.28" rx="13.65" ry="18.22" transform="translate(-412.23 304.46) rotate(-54.64)"/><ellipse class="cls-1" cx="244.52" cy="430.81" rx="18.22" ry="13.65" transform="translate(-422.04 175.04) rotate(-45)"/><ellipse class="cls-1" cx="323.53" cy="358.66" rx="20.98" ry="49.44" transform="translate(-212.93 -100.95) rotate(-3.94)"/><ellipse class="cls-1" cx="225.62" cy="357.24" rx="49.44" ry="20.98" transform="translate(-335.32 433.73) rotate(-86.06)"/><ellipse class="cls-1" cx="85.79" cy="239.26" rx="60.05" ry="75.97"/><path class="cls-1" d="M268.52,192.3c-2.11,0,2.08-.11,0,0-43.6,2.21-78,27.21-78,57.72,0,32,37.74,57.88,84.29,57.88S359.11,282,359.11,250c0-28.77-31.75-52.49-71.81-57l-1.6-3.86s-5.93-40.81,34-38.81V136.46c-46.3-10.85-50.86,52.73-50.86,52.73l-.29,3.11" transform="translate(-189.03 -124.04)"/><ellipse class="cls-2" cx="85.79" cy="134.96" rx="70.18" ry="46.67"/><circle class="cls-1" cx="136.2" cy="19.71" r="18.21"/><circle class="cls-3" cx="53.97" cy="211.23" r="5.43"/><circle class="cls-4" cx="71.71" cy="211.23" r="5.43"/><line class="cls-5" x1="52.8" y1="110.95" x2="52.8" y2="144.71"/><line class="cls-5" x1="117.04" y1="110.95" x2="117.04" y2="144.71"/></svg>