<svg id="Layer_1" data-name="Layer 1" xmlns="http://www.w3.org/2000/svg" viewBox="0 0 415 415"><defs><style>.cls-1{fill:#68b0e2;}.cls-2{fill:#079439;}.cls-3,.cls-4,.cls-5,.cls-6{fill:#f8f7f7;}.cls-3{opacity:0.52;}.cls-4{opacity:0.5;}.cls-6{opacity:0.54;}</style></defs><title>Earth</title><circle class="cls-1" cx="207.5" cy="207.5" r="207.5"/><path class="cls-2" d="M135.91,279.21s47.09-27,50.09-13.28-10,29.5-10,29.5-49.86,75.9,53-6.88,32,179.93,32,179.93-25,36.38-1,38.35,19,36.38,19,36.38-54,28.51-19,42.28S302,617,302,617-23.19,515.68,135.91,279.21Z" transform="translate(-90.14 -202)"/><path class="cls-2" d="M423.22,244.32C393.55,225.89,410,288,410,288s7,76-11,45,0,31,0,31,0,22,20,7,19-32,19-32,5-19,17-12l12,7s-5.49-53.85,3-40S456.71,265.12,423.22,244.32Z" transform="translate(-90.14 -202)"/><path class="cls-2" d="M491.39,337.69S482.75,438,471.87,394,449,372,449,372s-18,19-7,23a210,210,0,0,1,21.41,9.37s6.41,12.63,0,12.63-39.54-6.11-32,3.94S417,454,417,454s-17,38-8,38,43.75,23,62.87-5,22.95-12.72,22.95-12.72S517.77,378.39,491.39,337.69Z" transform="translate(-90.14 -202)"/><polygon class="cls-2" points="363.27 92 403.86 151 401.25 135.69 376.89 87.98 363.27 92"/><path class="cls-2" d="M495.94,471.91S453.74,535,406.37,523s-5,66.27-5,66.27S491.07,481.92,495.94,471.91Z" transform="translate(-90.14 -202)"/><path class="cls-2" d="M401.33,589.27s85.41-54.95,94.61-117.36" transform="translate(-90.14 -202)"/><path class="cls-3" d="M212,367s82-12,89,7-44.5,39.57-44.5,39.57-54.58,20.83,45.15,25,14.72,49.45,14.72,49.45-116.37,0-79.37,20,14,30,14,30-82,43-108,0,17-77.81,17-77.81,38-32.19,8-56.19,44-40.73,44-40.73Z" transform="translate(-90.14 -202)"/><path class="cls-4" d="M454.08,272.43S323.69,260,377.1,284s128,56,103.78,63-100.4-1.31-74.19,41,98.45,42.63,98.45,42.63S504.75,314.07,454.08,272.43Z" transform="translate(-90.14 -202)"/><path class="cls-5" d="M530,210" transform="translate(-90.14 -202)"/><path class="cls-6" d="M299.67,229.19c-61-17.57-81.28-10.74-81.28-10.74s-57.45,29.15-57.2,34-63,63.11,15.52,46.74,192,2.72,160.15-30.78" transform="translate(-90.14 -202)"/></svg>