<svg id="Layer_1" data-name="Layer 1" xmlns="http://www.w3.org/2000/svg" viewBox="0 0 357.54 290.96"><defs><style>.cls-1{fill:#ae343f;}.cls-2{fill:#f2af28;}.cls-3{fill:#e0e0ce;}.cls-4{fill:#fff;stroke:#000;stroke-miterlimit:10;stroke-width:5px;}</style></defs><title>Final Logo</title><ellipse class="cls-1" cx="178.77" cy="145.48" rx="178.77" ry="145.48"/><path class="cls-2" d="M169.66,183.92s-13.07,39,75.89,113.16l59.78,48.8s4-48.7,46.89-64.15l-59.78-48.8c-90.39-72.23-122.78-49-122.78-49" transform="translate(-104.75 -138.25)"/><path class="cls-2" d="M303.61,352.94l-46-37.54s-15.76,57.74,20.81,86.05C278.43,401.45,286.14,338.68,303.61,352.94Z" transform="translate(-104.75 -138.25)"/><path class="cls-2" d="M358,278.58l-46-37.53s48.88-30.72,84-.46C396,240.59,340.48,264.32,358,278.58Z" transform="translate(-104.75 -138.25)"/><ellipse class="cls-3" cx="224.33" cy="228.55" rx="23.02" ry="20.62" transform="translate(-178.68 206.9) rotate(-66.89)"/><ellipse class="cls-3" cx="159.07" cy="122.53" rx="12.64" ry="13.36"/><ellipse class="cls-3" cx="190.19" cy="147.94" rx="12.64" ry="13.36"/><path class="cls-4" d="M312,341.94" transform="translate(-104.75 -138.25)"/><path class="cls-3" d="M426.4,407.43" transform="translate(-104.75 -138.25)"/><path class="cls-3" d="M426.66,370.9c-21.48-20-38.94-33.72-38.94-33.72l-6.4-5L415,336.6l-30.66-21.2,40.49,3.5L374.24,299c-5.5-1.91-7.44-2-12.6-2.36-15.45-1.22-20.65,2.79-20.65,2.79-21.14,7.76-25.3,23.11-17.13,48l1.81,5.53,20.62,47.58-2.8-38.75,19.06,23.2-5.12-28.19,3.63,3.85a332.09,332.09,0,0,1,38.79,33.63S428.36,372.49,426.66,370.9Z" transform="translate(-104.75 -138.25)"/><path class="cls-3" d="M438.34,397.26" transform="translate(-104.75 -138.25)"/><path class="cls-3" d="M426.66,370.9s-25.4,24.69-26.81,23.29" transform="translate(-104.75 -138.25)"/></svg>