<svg xmlns="http://www.w3.org/2000/svg" viewBox="0 0 257.75 221.08"><defs><style>.cls-1{fill:#f2af28;}.cls-2{fill:#e0e0ce;}</style></defs><title>Asset 1</title><g id="Layer_2" data-name="Layer 2"><g id="Layer_1-2" data-name="Layer 1"><path class="cls-1" d="M.67,3.55s-13.07,39,75.89,113.16l59.78,48.8s4-48.7,46.89-64.15l-59.78-48.8C33.06-19.67.67,3.56.67,3.56"/><path class="cls-1" d="M134.62,172.57,88.62,135s-15.76,57.74,20.81,86.05C109.44,221.08,117.15,158.31,134.62,172.57Z"/><path class="cls-1" d="M189,98.21,143,60.68s48.88-30.72,84-.46C227,60.22,171.49,84,189,98.21Z"/><ellipse class="cls-2" cx="55.34" cy="48.16" rx="23.02" ry="20.62" transform="translate(-10.67 80.16) rotate(-66.89)"/><ellipse class="cls-2" cx="94.83" cy="80.41" rx="12.64" ry="13.36"/><ellipse class="cls-2" cx="125.95" cy="105.82" rx="12.64" ry="13.36"/><path class="cls-2" d="M257.67,190.53c-21.48-20-38.94-33.72-38.94-33.72l-6.4-5L246,156.23,215.35,135l40.49,3.5-50.59-19.9c-5.5-1.91-7.44-2-12.6-2.36-15.45-1.22-20.65,2.79-20.65,2.79-21.14,7.76-25.3,23.11-17.13,48l1.81,5.53,20.62,47.58-2.8-38.75,19.06,23.2-5.12-28.19,3.63,3.85a331.9,331.9,0,0,1,38.79,33.63S259.37,192.12,257.67,190.53Z"/><path class="cls-2" d="M257.67,190.53s-25.4,24.69-26.81,23.29"/></g></g></svg>