<svg id="Layer_1" data-name="Layer 1" xmlns="http://www.w3.org/2000/svg" viewBox="0 0 369 369.42"><defs><style>.cls-1,.cls-3{fill:#696969;}.cls-2{fill:none;}.cls-2,.cls-3,.cls-5{stroke:#fff;stroke-miterlimit:10;}.cls-2,.cls-4,.cls-5{opacity:0.6;}.cls-3{opacity:0.64;}.cls-4,.cls-5{fill:#fff;}</style></defs><title>Mecury</title><circle class="cls-1" cx="184.5" cy="184.92" r="184.5"/><path class="cls-2" d="M278,202s-78.63,51.85-88.94,131.55" transform="translate(-110 -201.58)"/><path class="cls-3" d="M351.58,211S436,343,438,386.5" transform="translate(-110 -201.58)"/><ellipse class="cls-4" cx="191.38" cy="341" rx="10.13" ry="7.06" transform="translate(-278.86 291.51) rotate(-83.59)"/><path class="cls-2" d="M198.67,343.54s33.71-7.12,46,3.28" transform="translate(-110 -201.58)"/><path class="cls-2" d="M183.24,344.05s-13.24.49-13.24,7.49" transform="translate(-110 -201.58)"/><path class="cls-2" d="M192,332.58s7-12,14-8" transform="translate(-110 -201.58)"/><line class="cls-2" x1="73.99" y1="135.65" x2="61.08" y2="128.28"/><ellipse class="cls-5" cx="261" cy="273.92" rx="6" ry="13.5"/><ellipse class="cls-5" cx="234.19" cy="39.17" rx="4.6" ry="6.25"/><ellipse class="cls-5" cx="145.32" cy="90.42" rx="3" ry="6.75"/><ellipse class="cls-5" cx="319.5" cy="100.54" rx="2.5" ry="10.13"/><path class="cls-2" d="M191.38,539.51S142,464,162,413" transform="translate(-110 -201.58)"/><path class="cls-2" d="M332,329.87S355,417,327,447" transform="translate(-110 -201.58)"/></svg>