<svg id="Layer_1" data-name="Layer 1" xmlns="http://www.w3.org/2000/svg" viewBox="0 0 422 422"><defs><style>.cls-1{fill:#2f51a0;}.cls-2{fill:#497ec0;}.cls-3{fill:#89d1f2;opacity:0.23;}</style></defs><title>Neptune</title><circle class="cls-1" cx="211" cy="211" r="211"/><path class="cls-2" d="M84.63,316.06s201.82,80.16,354.9-97.81c0,0,21.68,25,42.35,62.19,8.68,15.61,12.95,42,16.09,65.44,10.64,79.41-393.85,186.48-392.6,115.94.24-13.66-8.36-10.42-9.63-16C89.14,416.76,69.87,391.16,84.63,316.06Z" transform="translate(-78 -153)"/><path class="cls-3" d="M217.26,185.94c-56.55,28.8-66.73,47.65-66.73,47.65s-22.08,60.52-18.57,63.9-3,89.15,43.24,23.56,142.18-129.12,96-131.82" transform="translate(-78 -153)"/></svg>